<svg width="33" height="40" viewBox="0 0 33 40" fill="none" xmlns="http://www.w3.org/2000/svg">
<path d="M19.5774 31.7284C19.6009 31.6587 19.6245 31.6121 19.6481 31.5424C19.6952 31.2865 19.7188 31.0307 19.7659 30.7748C19.8131 30.3795 19.8131 30.0073 19.9309 29.6352C20.0252 29.2863 20.0487 28.9374 20.143 28.5886C20.2137 28.3327 20.308 28.0536 20.4023 27.7978C20.4965 27.5419 20.6144 27.2861 20.7558 27.0302C20.9208 26.7046 21.0622 26.3558 21.2272 26.0301C21.4393 25.6347 21.6514 25.2394 21.8635 24.8672C22.0521 24.5416 22.2642 24.216 22.4999 23.9136C22.7355 23.588 23.0184 23.2857 23.3012 22.9833C23.7254 22.5646 24.1497 22.1227 24.5503 21.6808C24.7153 21.4948 24.951 21.3785 25.116 21.1691C25.1631 21.0994 25.2338 21.0529 25.2809 20.9831C25.5166 20.7738 25.7523 20.5412 25.988 20.3318C26.2708 20.076 26.5772 19.7969 26.86 19.5411C27.025 19.4015 27.2135 19.2852 27.4021 19.1224C27.7556 18.8433 28.1092 18.5642 28.4391 18.2618C28.8162 17.9362 29.1697 17.5874 29.5468 17.2385C29.7589 17.0292 29.9946 16.8431 30.2539 16.6803C30.4424 16.564 30.6781 16.471 30.8195 16.2849C30.8667 16.2151 30.9609 16.1919 31.0316 16.1686C31.2909 16.0523 31.5737 15.9128 31.833 15.7965C31.9744 15.7499 32.1394 15.7034 32.2808 15.6802C32.3986 15.6569 32.4929 15.6802 32.5872 15.7499C32.6579 15.7965 32.7286 15.843 32.7993 15.9128C32.8228 15.9593 32.8464 16.0058 32.87 16.0756C33.0114 17.4013 32.7757 18.7968 32.7757 20.1458C32.7993 21.6343 33.0585 23.0996 32.9878 24.5881C32.9171 25.8441 32.4929 27.1465 32.0215 28.3095C30.8902 31.1237 28.6984 34.4729 25.658 35.5196C25.2102 35.6824 24.9274 35.7521 24.5503 35.7986C24.2204 35.8452 23.8904 35.9149 23.6076 36.0545C22.5234 36.5894 21.5335 38.0547 21.5571 39.2641C21.5571 39.3107 21.5571 39.3804 21.51 39.427C21.3686 39.6363 21.2036 39.8223 20.9915 39.9386C20.8501 40.0084 20.7086 40.0317 20.5672 39.9386C20.473 39.8921 20.3787 39.8456 20.2844 39.7991C20.2137 39.7526 20.1901 39.7061 20.1901 39.6363C20.2373 39.3107 20.2609 38.985 20.308 38.6827C20.308 38.6594 20.308 38.6362 20.308 38.6129C20.2609 38.4501 20.308 38.2873 20.2844 38.1245C20.2609 37.9152 20.1902 37.7058 20.1194 37.4965C20.0016 37.0779 19.8602 36.6825 19.6716 36.2871C19.4831 35.8684 19.2945 35.473 19.0589 35.0776C18.8467 34.7055 18.6346 34.2636 18.3047 33.9845C18.2575 33.938 18.2104 33.9147 18.1397 33.8682C17.6212 33.4961 17.1734 33.0309 16.867 32.4727C16.7963 32.3332 16.702 32.1936 16.6313 32.0541C16.5606 31.9378 16.4663 31.8447 16.3249 31.8447C15.8535 31.868 15.335 31.5889 14.8872 31.4493C14.5337 31.333 14.1802 31.2168 13.8502 31.0539C13.756 31.0074 13.6853 30.9609 13.591 30.8911C13.1903 30.6586 12.7661 30.519 12.3419 30.3097C12.1769 30.2166 12.0119 30.1469 11.8469 30.0538C11.4227 29.8213 11.022 29.5654 10.6214 29.3328C10.3621 29.17 10.1264 28.984 9.86716 28.8211C9.63148 28.6583 9.39579 28.4723 9.18367 28.2862C8.99512 28.1234 8.80658 28.0071 8.59446 27.8676C8.2645 27.6582 7.93454 27.4489 7.65172 27.1931C7.32176 26.8907 7.01537 26.5651 6.70898 26.2627C6.4733 26.0301 6.21405 25.7976 5.97836 25.565C5.83695 25.4254 5.71911 25.2626 5.5777 25.1463C5.31845 24.9137 5.12989 24.6114 4.89421 24.3555C4.46997 23.8206 4.02218 23.3089 3.62152 22.774C3.4094 22.4949 3.22085 22.2158 3.05587 21.9134C2.84375 21.5413 2.60807 21.1691 2.41952 20.797C2.2074 20.3784 1.99529 19.9364 1.80674 19.4945C1.54749 18.8898 1.35895 18.2851 1.14683 17.6571C1.05255 17.3548 0.934716 17.0524 0.840442 16.7501C0.769736 16.564 0.699025 16.4012 0.62832 16.2151C0.604751 16.1453 0.604748 16.0523 0.58118 15.9825C0.510475 15.7034 0.439778 15.4243 0.369072 15.1452C0.321935 14.9592 0.321924 14.7963 0.298355 14.6103C0.22765 14.0986 0.133385 13.5637 0.0862478 13.052C0.0391109 12.4938 -0.0315916 11.9588 0.0155453 11.4006C0.0391138 10.9587 0.0862421 10.5168 0.109811 10.0749C0.133379 9.56322 0.251221 9.07479 0.345495 8.58637C0.439769 8.07468 0.557609 7.563 0.651882 7.02806C0.746156 6.49311 0.816862 5.95817 0.887567 5.42323C0.934704 4.98132 1.00542 4.53941 1.02899 4.12076C1.05255 3.84166 1.05256 3.56256 1.07613 3.30672C1.09969 3.07413 1.14683 2.81829 1.19397 2.58571C1.28824 2.16706 1.3825 1.77167 1.47678 1.37627C1.50035 1.3065 1.50035 1.21346 1.52392 1.14369C1.54749 1.05066 1.59463 0.980881 1.6182 0.887847C1.66534 0.748297 1.6889 0.632005 1.73604 0.492455C1.75961 0.42268 1.78317 0.352905 1.80674 0.28313C1.94815 -0.0192289 2.32525 -0.089004 2.56094 0.120321C2.70235 0.236613 2.82018 0.376163 2.93803 0.515713C3.36226 0.980881 3.69223 1.37627 4.02218 1.88796C4.35214 2.4229 4.70567 2.93458 5.08277 3.44627C5.90766 4.53941 6.87396 5.46975 7.88741 6.40008C8.1938 6.70244 8.54733 6.95828 8.92442 7.19086C9.20725 7.37693 9.49007 7.58626 9.79646 7.77232C10.15 8.00491 10.5035 8.26075 10.857 8.49333C11.0927 8.65614 11.3284 8.86547 11.5641 9.02828C11.7998 9.21434 12.059 9.40041 12.2947 9.56322C12.4597 9.67951 12.6247 9.81906 12.7896 9.93535C13.1432 10.2145 13.426 10.5401 13.7795 10.7959C14.1566 11.075 14.5337 11.3774 14.9108 11.703C15.6414 12.3542 16.3013 13.052 16.8906 13.8195C18.0926 15.3313 18.9882 17.0757 19.5774 18.9131C19.9309 20.0295 20.1194 21.2389 20.2609 22.4018C20.4023 23.6345 20.3787 24.8905 20.2609 26.1232C20.143 27.1698 19.978 28.2164 19.7659 29.2398C19.6716 29.7515 19.5302 30.2632 19.436 30.7981C19.4124 30.9609 19.3888 31.1702 19.3888 31.333C19.3181 31.4261 19.5302 31.7982 19.5774 31.7284ZM7.79314 15.3778C8.87729 16.1919 9.74931 17.3083 10.7156 18.2618C11.187 18.7038 11.6348 19.1224 12.1062 19.5643C12.5304 19.9364 13.0489 20.2853 13.426 20.6807C13.9209 21.2157 14.3687 21.7739 14.793 22.3553C15.4529 23.2857 16.0657 24.1927 16.5606 25.2161C16.867 25.8441 17.1498 26.472 17.4091 27.1C17.5269 27.4256 17.6683 27.7513 17.7862 28.0769C17.8333 28.2164 17.8804 28.356 17.904 28.4955C17.9276 28.6351 17.8804 28.7049 18.0218 28.7979C18.0218 28.7514 18.0454 28.7281 18.0454 28.7049C18.0454 28.5188 18.0454 28.3327 18.069 28.1699C18.069 27.9606 18.0926 27.7513 18.1161 27.5419C18.234 25.0765 17.9276 22.7507 17.3384 20.3784C17.2677 20.076 17.197 19.7969 17.1262 19.4945C17.032 19.1224 16.9377 18.7503 16.8199 18.3781C16.6784 17.8897 16.537 17.4245 16.3249 16.9826C16.2071 16.7268 16.0892 16.471 15.9478 16.2151C14.628 14.0521 12.9546 12.1682 10.8099 10.7959C10.6449 10.7029 10.5035 10.6098 10.3385 10.4936C10.0557 10.3075 9.77288 10.1214 9.49006 9.93535C7.51031 8.60962 5.43628 7.21412 3.88077 5.37671C3.83363 5.33019 3.78649 5.26042 3.69222 5.28368C3.69222 5.3302 3.69222 5.35345 3.69222 5.39997C3.62152 5.95817 3.64508 6.53963 3.57438 7.09783C3.52724 7.63277 3.43296 8.16772 3.36226 8.70266C3.26798 9.30738 3.19729 9.93535 3.15015 10.5633C3.07944 11.4006 3.05588 12.2379 3.07945 13.0752C3.07945 13.4939 3.103 13.8893 3.12657 14.3079C3.15014 14.7266 3.26799 15.0987 3.31513 15.5174C3.48011 17.0292 3.92791 18.4944 4.49355 19.9132C4.77638 20.6109 5.10633 21.2854 5.41272 21.9832C5.69554 22.6344 6.16692 23.2159 6.61472 23.7741C7.03895 24.3323 7.48674 24.8672 7.95811 25.3789C8.85371 26.3325 9.84359 27.3791 11.0691 27.9373C11.4462 28.1234 11.8233 28.3095 12.1769 28.5188C12.6247 28.7746 13.0489 29.0537 13.4496 29.3328C13.7324 29.5422 14.0152 29.7747 14.3216 29.9375C14.5808 30.0771 14.8401 30.1934 15.0994 30.3329C15.2172 30.4027 15.335 30.4492 15.4529 30.519C15.4765 30.519 15.7593 30.6586 15.7357 30.5888C15.7121 30.519 15.6886 30.4492 15.665 30.4027C15.5236 30.0771 15.3822 29.7515 15.2643 29.4259C15.1465 29.1468 15.0286 28.8909 14.9108 28.6118C14.8165 28.3792 14.6987 28.1467 14.6044 27.9141C14.4159 27.4722 14.2273 27.007 14.0388 26.5651C13.7088 25.8208 13.3789 25.0533 13.0489 24.309C12.9311 24.0299 12.7661 23.7508 12.6247 23.495C12.5068 23.2624 12.3418 23.0531 12.2004 22.8437C12.0826 22.6577 11.9883 22.4949 11.8705 22.3088C11.7762 22.146 11.6584 21.9832 11.5405 21.8204C11.3991 21.6111 11.2813 21.4017 11.1634 21.2157C11.1163 21.1459 11.0692 21.0529 10.9984 20.9831C10.8335 20.7738 10.6685 20.5644 10.5035 20.3318C10.2678 19.983 10.0321 19.6341 9.82002 19.2852C9.67861 19.0759 9.5372 18.8666 9.41936 18.6572C9.34865 18.5642 9.27795 18.4479 9.23081 18.3316C9.16011 18.1921 9.08939 18.0525 9.01869 17.913C8.80657 17.5408 8.59447 17.192 8.38235 16.8198C8.31165 16.6803 8.24093 16.564 8.19379 16.4244C8.07595 16.1686 7.95811 15.9128 7.84027 15.6569C7.72242 15.5871 7.69887 15.4941 7.79314 15.3778ZM21.7221 37.5895C21.8635 37.3802 21.9813 37.1709 22.0992 36.9848C22.1699 36.8685 22.217 36.7057 22.3113 36.5894C22.8062 35.9615 23.419 35.5893 24.0789 35.1939C25.1631 34.5194 26.1765 33.7054 27.0486 32.7751C27.4964 32.3099 27.897 31.8215 28.2741 31.3098C28.6748 30.7748 29.0755 30.2632 29.3347 29.6584C29.6882 28.8444 30.0182 28.0536 30.1832 27.1698C30.3717 26.2627 30.4424 25.3324 30.4896 24.4021C30.5367 23.4485 30.5131 22.4949 30.5603 21.5413C30.5838 20.6342 30.6781 19.7039 30.6781 18.7968C30.6781 18.727 30.7017 18.6572 30.631 18.6107C30.7253 18.6805 29.9946 19.1922 29.9475 19.2154C29.6175 19.448 29.2876 19.6573 28.9812 19.9132C28.3448 20.3784 27.7321 20.8435 27.1428 21.3319C27.1428 21.425 26.8365 21.6576 26.7658 21.7273C26.6243 21.8669 26.5065 22.0064 26.3651 22.146C26.0823 22.4484 25.7994 22.7507 25.5166 23.0531C25.2338 23.3322 24.9746 23.6345 24.7153 23.9136C24.5032 24.1462 24.3853 24.4486 24.1732 24.7044C23.5369 25.5417 23.0655 26.6116 22.712 27.6117C22.3349 28.6816 22.0756 29.798 21.9106 30.9144C21.5807 33.1007 21.6278 35.3335 21.6043 37.543C21.6514 37.5198 21.6985 37.543 21.7221 37.5895ZM19.5538 33.9845C19.5538 33.9147 19.5538 33.8682 19.5538 33.8449C19.436 33.5891 19.3181 33.3333 19.1296 33.1239C18.3047 32.1936 17.739 31.0772 17.197 29.9608C16.8199 29.1933 16.4899 28.4258 16.1835 27.6582C16.0421 27.2861 15.9478 26.8442 15.7357 26.4953C15.5707 26.2162 15.4293 25.9836 15.3115 25.6813L15.2879 25.658C15.1701 25.4022 15.0287 25.1696 14.9344 24.9137C14.793 24.5416 14.6044 24.216 14.4159 23.8904C14.2273 23.5415 13.9916 23.2159 13.756 22.867C13.5203 22.4949 13.2846 22.146 12.8839 21.9134C12.7425 21.8204 12.6011 21.7041 12.4833 21.5645C12.3418 21.4017 12.1769 21.2622 12.0119 21.1226C11.8233 20.9366 11.6584 20.7505 11.4698 20.5644C11.4462 20.5412 11.3991 20.5179 11.3755 20.4946C11.3755 20.5412 11.3755 20.5644 11.3755 20.5644C11.4698 20.6807 11.517 20.8435 11.6348 20.9366C11.6819 20.9831 11.7291 21.0528 11.7526 21.0994C11.9412 21.425 12.1062 21.7739 12.3419 22.053C12.4833 22.239 12.6247 22.4716 12.7425 22.6809C13.5203 23.9834 14.1095 25.4254 14.7694 26.7977C15.4765 28.2397 16.1835 29.6584 16.9377 31.0772C17.1734 31.5191 17.4326 31.868 17.7155 32.2866C17.7626 32.3564 17.8333 32.4029 17.8569 32.496C18.0218 32.8216 18.2811 33.0542 18.5404 33.2868C18.7053 33.4263 18.8467 33.5658 19.0117 33.7287C19.0353 33.7519 19.0589 33.7752 19.106 33.7752C19.2003 33.7752 19.2474 33.8449 19.3181 33.8915C19.3888 33.8915 19.4595 33.9147 19.5538 33.9845ZM3.45654 4.12076L3.43297 4.0975C3.4094 4.0975 3.38583 4.12076 3.38583 4.12076C3.38583 4.14402 3.38583 4.16728 3.38583 4.23705C3.43297 4.16728 3.43297 4.14402 3.45654 4.12076ZM2.16027 4.42312C2.16027 4.46964 2.18384 4.46964 2.20741 4.49289C2.20741 4.49289 2.2074 4.46964 2.23097 4.46964C2.18384 4.44638 2.16027 4.44638 2.16027 4.42312Z" fill="#66BC46"/>
<path d="M19.5774 31.7284C19.6009 31.6587 19.6245 31.6121 19.6481 31.5424C19.6952 31.2865 19.7188 31.0307 19.7659 30.7748C19.8131 30.3795 19.8131 30.0073 19.9309 29.6352C20.0252 29.2863 20.0487 28.9374 20.143 28.5886C20.2137 28.3327 20.308 28.0536 20.4023 27.7978C20.4965 27.5419 20.6144 27.2861 20.7558 27.0302C20.9208 26.7046 21.0622 26.3558 21.2272 26.0301C21.4393 25.6347 21.6514 25.2394 21.8635 24.8672C22.0521 24.5416 22.2642 24.216 22.4999 23.9136C22.7355 23.588 23.0184 23.2857 23.3012 22.9833C23.7254 22.5646 24.1497 22.1227 24.5503 21.6808C24.7153 21.4948 24.951 21.3785 25.116 21.1691C25.1631 21.0994 25.2338 21.0529 25.2809 20.9831C25.5166 20.7738 25.7523 20.5412 25.988 20.3318C26.2708 20.076 26.5772 19.7969 26.86 19.5411C27.025 19.4015 27.2135 19.2852 27.4021 19.1224C27.7556 18.8433 28.1092 18.5642 28.4391 18.2618C28.8162 17.9362 29.1697 17.5874 29.5468 17.2385C29.7589 17.0292 29.9946 16.8431 30.2539 16.6803C30.4424 16.564 30.6781 16.471 30.8195 16.2849C30.8667 16.2151 30.9609 16.1919 31.0316 16.1686C31.2909 16.0523 31.5737 15.9128 31.833 15.7965C31.9744 15.7499 32.1394 15.7034 32.2808 15.6802C32.3986 15.6569 32.4929 15.6802 32.5872 15.7499C32.6579 15.7965 32.7286 15.843 32.7993 15.9128C32.8228 15.9593 32.8464 16.0058 32.87 16.0756C33.0114 17.4013 32.7757 18.7968 32.7757 20.1458C32.7993 21.6343 33.0585 23.0996 32.9878 24.5881C32.9171 25.8441 32.4929 27.1465 32.0215 28.3095C30.8902 31.1237 28.6984 34.4729 25.658 35.5196C25.2102 35.6824 24.9274 35.7521 24.5503 35.7986C24.2204 35.8452 23.8904 35.9149 23.6076 36.0545C22.5234 36.5894 21.5335 38.0547 21.5571 39.2641C21.5571 39.3107 21.5571 39.3804 21.51 39.427C21.3686 39.6363 21.2036 39.8223 20.9915 39.9386C20.8501 40.0084 20.7086 40.0317 20.5672 39.9386C20.473 39.8921 20.3787 39.8456 20.2844 39.7991C20.2137 39.7526 20.1901 39.7061 20.1901 39.6363C20.2373 39.3107 20.2609 38.985 20.308 38.6827C20.308 38.6594 20.308 38.6362 20.308 38.6129C20.2609 38.4501 20.308 38.2873 20.2844 38.1245C20.2609 37.9152 20.1902 37.7058 20.1194 37.4965C20.0016 37.0779 19.8602 36.6825 19.6716 36.2871C19.4831 35.8684 19.2945 35.473 19.0589 35.0776C18.8467 34.7055 18.6346 34.2636 18.3047 33.9845C18.2575 33.938 18.2104 33.9147 18.1397 33.8682C17.6212 33.4961 17.1734 33.0309 16.867 32.4727C16.7963 32.3332 16.702 32.1936 16.6313 32.0541C16.5606 31.9378 16.4663 31.8447 16.3249 31.8447C15.8535 31.868 15.335 31.5889 14.8872 31.4493C14.5337 31.333 14.1802 31.2168 13.8502 31.0539C13.756 31.0074 13.6853 30.9609 13.591 30.8911C13.1903 30.6586 12.7661 30.519 12.3419 30.3097C12.1769 30.2166 12.0119 30.1469 11.8469 30.0538C11.4227 29.8213 11.022 29.5654 10.6214 29.3328C10.3621 29.17 10.1264 28.984 9.86716 28.8211C9.63148 28.6583 9.39579 28.4723 9.18367 28.2862C8.99512 28.1234 8.80658 28.0071 8.59446 27.8676C8.2645 27.6582 7.93454 27.4489 7.65172 27.1931C7.32176 26.8907 7.01537 26.5651 6.70898 26.2627C6.4733 26.0301 6.21405 25.7976 5.97836 25.565C5.83695 25.4254 5.71911 25.2626 5.5777 25.1463C5.31845 24.9137 5.12989 24.6114 4.89421 24.3555C4.46997 23.8206 4.02218 23.3089 3.62152 22.774C3.4094 22.4949 3.22085 22.2158 3.05587 21.9134C2.84375 21.5413 2.60807 21.1691 2.41952 20.797C2.2074 20.3784 1.99529 19.9364 1.80674 19.4945C1.54749 18.8898 1.35895 18.2851 1.14683 17.6571C1.05255 17.3548 0.934716 17.0524 0.840442 16.7501C0.769736 16.564 0.699025 16.4012 0.62832 16.2151C0.604751 16.1453 0.604748 16.0523 0.58118 15.9825C0.510475 15.7034 0.439778 15.4243 0.369072 15.1452C0.321935 14.9592 0.321924 14.7963 0.298355 14.6103C0.22765 14.0986 0.133385 13.5637 0.0862478 13.052C0.0391109 12.4938 -0.0315916 11.9588 0.0155453 11.4006C0.0391138 10.9587 0.0862421 10.5168 0.109811 10.0749C0.133379 9.56322 0.251221 9.07479 0.345495 8.58637C0.439769 8.07468 0.557609 7.563 0.651882 7.02806C0.746156 6.49311 0.816862 5.95817 0.887567 5.42323C0.934704 4.98132 1.00542 4.53941 1.02899 4.12076C1.05255 3.84166 1.05256 3.56256 1.07613 3.30672C1.09969 3.07413 1.14683 2.81829 1.19397 2.58571C1.28824 2.16706 1.3825 1.77167 1.47678 1.37627C1.50035 1.3065 1.50035 1.21346 1.52392 1.14369C1.54749 1.05066 1.59463 0.980881 1.6182 0.887847C1.66534 0.748297 1.6889 0.632005 1.73604 0.492455C1.75961 0.42268 1.78317 0.352905 1.80674 0.28313C1.94815 -0.0192289 2.32525 -0.089004 2.56094 0.120321C2.70235 0.236613 2.82018 0.376163 2.93803 0.515713C3.36226 0.980881 3.69223 1.37627 4.02218 1.88796C4.35214 2.4229 4.70567 2.93458 5.08277 3.44627C5.90766 4.53941 6.87396 5.46975 7.88741 6.40008C8.1938 6.70244 8.54733 6.95828 8.92442 7.19086C9.20725 7.37693 9.49007 7.58626 9.79646 7.77232C10.15 8.00491 10.5035 8.26075 10.857 8.49333C11.0927 8.65614 11.3284 8.86547 11.5641 9.02828C11.7998 9.21434 12.059 9.40041 12.2947 9.56322C12.4597 9.67951 12.6247 9.81906 12.7896 9.93535C13.1432 10.2145 13.426 10.5401 13.7795 10.7959C14.1566 11.075 14.5337 11.3774 14.9108 11.703C15.6414 12.3542 16.3013 13.052 16.8906 13.8195C18.0926 15.3313 18.9882 17.0757 19.5774 18.9131C19.9309 20.0295 20.1194 21.2389 20.2609 22.4018C20.4023 23.6345 20.3787 24.8905 20.2609 26.1232C20.143 27.1698 19.978 28.2164 19.7659 29.2398C19.6716 29.7515 19.5302 30.2632 19.436 30.7981C19.4124 30.9609 19.3888 31.1702 19.3888 31.333C19.3181 31.4261 19.5302 31.7982 19.5774 31.7284ZM7.79314 15.3778C8.87729 16.1919 9.74931 17.3083 10.7156 18.2618C11.187 18.7038 11.6348 19.1224 12.1062 19.5643C12.5304 19.9364 13.0489 20.2853 13.426 20.6807C13.9209 21.2157 14.3687 21.7739 14.793 22.3553C15.4529 23.2857 16.0657 24.1927 16.5606 25.2161C16.867 25.8441 17.1498 26.472 17.4091 27.1C17.5269 27.4256 17.6683 27.7513 17.7862 28.0769C17.8333 28.2164 17.8804 28.356 17.904 28.4955C17.9276 28.6351 17.8804 28.7049 18.0218 28.7979C18.0218 28.7514 18.0454 28.7281 18.0454 28.7049C18.0454 28.5188 18.0454 28.3327 18.069 28.1699C18.069 27.9606 18.0926 27.7513 18.1161 27.5419C18.234 25.0765 17.9276 22.7507 17.3384 20.3784C17.2677 20.076 17.197 19.7969 17.1262 19.4945C17.032 19.1224 16.9377 18.7503 16.8199 18.3781C16.6784 17.8897 16.537 17.4245 16.3249 16.9826C16.2071 16.7268 16.0892 16.471 15.9478 16.2151C14.628 14.0521 12.9546 12.1682 10.8099 10.7959C10.6449 10.7029 10.5035 10.6098 10.3385 10.4936C10.0557 10.3075 9.77288 10.1214 9.49006 9.93535C7.51031 8.60962 5.43628 7.21412 3.88077 5.37671C3.83363 5.33019 3.78649 5.26042 3.69222 5.28368C3.69222 5.3302 3.69222 5.35345 3.69222 5.39997C3.62152 5.95817 3.64508 6.53963 3.57438 7.09783C3.52724 7.63277 3.43296 8.16772 3.36226 8.70266C3.26798 9.30738 3.19729 9.93535 3.15015 10.5633C3.07944 11.4006 3.05588 12.2379 3.07945 13.0752C3.07945 13.4939 3.103 13.8893 3.12657 14.3079C3.15014 14.7266 3.26799 15.0987 3.31513 15.5174C3.48011 17.0292 3.92791 18.4944 4.49355 19.9132C4.77638 20.6109 5.10633 21.2854 5.41272 21.9832C5.69554 22.6344 6.16692 23.2159 6.61472 23.7741C7.03895 24.3323 7.48674 24.8672 7.95811 25.3789C8.85371 26.3325 9.84359 27.3791 11.0691 27.9373C11.4462 28.1234 11.8233 28.3095 12.1769 28.5188C12.6247 28.7746 13.0489 29.0537 13.4496 29.3328C13.7324 29.5422 14.0152 29.7747 14.3216 29.9375C14.5808 30.0771 14.8401 30.1934 15.0994 30.3329C15.2172 30.4027 15.335 30.4492 15.4529 30.519C15.4765 30.519 15.7593 30.6586 15.7357 30.5888C15.7121 30.519 15.6886 30.4492 15.665 30.4027C15.5236 30.0771 15.3822 29.7515 15.2643 29.4259C15.1465 29.1468 15.0286 28.8909 14.9108 28.6118C14.8165 28.3792 14.6987 28.1467 14.6044 27.9141C14.4159 27.4722 14.2273 27.007 14.0388 26.5651C13.7088 25.8208 13.3789 25.0533 13.0489 24.309C12.9311 24.0299 12.7661 23.7508 12.6247 23.495C12.5068 23.2624 12.3418 23.0531 12.2004 22.8437C12.0826 22.6577 11.9883 22.4949 11.8705 22.3088C11.7762 22.146 11.6584 21.9832 11.5405 21.8204C11.3991 21.6111 11.2813 21.4017 11.1634 21.2157C11.1163 21.1459 11.0692 21.0529 10.9984 20.9831C10.8335 20.7738 10.6685 20.5644 10.5035 20.3318C10.2678 19.983 10.0321 19.6341 9.82002 19.2852C9.67861 19.0759 9.5372 18.8666 9.41936 18.6572C9.34865 18.5642 9.27795 18.4479 9.23081 18.3316C9.16011 18.1921 9.08939 18.0525 9.01869 17.913C8.80657 17.5408 8.59447 17.192 8.38235 16.8198C8.31165 16.6803 8.24093 16.564 8.19379 16.4244C8.07595 16.1686 7.95811 15.9128 7.84027 15.6569C7.72242 15.5871 7.69887 15.4941 7.79314 15.3778ZM21.7221 37.5895C21.8635 37.3802 21.9813 37.1709 22.0992 36.9848C22.1699 36.8685 22.217 36.7057 22.3113 36.5894C22.8062 35.9615 23.419 35.5893 24.0789 35.1939C25.1631 34.5194 26.1765 33.7054 27.0486 32.7751C27.4964 32.3099 27.897 31.8215 28.2741 31.3098C28.6748 30.7748 29.0755 30.2632 29.3347 29.6584C29.6882 28.8444 30.0182 28.0536 30.1832 27.1698C30.3717 26.2627 30.4424 25.3324 30.4896 24.4021C30.5367 23.4485 30.5131 22.4949 30.5603 21.5413C30.5838 20.6342 30.6781 19.7039 30.6781 18.7968C30.6781 18.727 30.7017 18.6572 30.631 18.6107C30.7253 18.6805 29.9946 19.1922 29.9475 19.2154C29.6175 19.448 29.2876 19.6573 28.9812 19.9132C28.3448 20.3784 27.7321 20.8435 27.1428 21.3319C27.1428 21.425 26.8365 21.6576 26.7658 21.7273C26.6243 21.8669 26.5065 22.0064 26.3651 22.146C26.0823 22.4484 25.7994 22.7507 25.5166 23.0531C25.2338 23.3322 24.9746 23.6345 24.7153 23.9136C24.5032 24.1462 24.3853 24.4486 24.1732 24.7044C23.5369 25.5417 23.0655 26.6116 22.712 27.6117C22.3349 28.6816 22.0756 29.798 21.9106 30.9144C21.5807 33.1007 21.6278 35.3335 21.6043 37.543C21.6514 37.5198 21.6985 37.543 21.7221 37.5895ZM19.5538 33.9845C19.5538 33.9147 19.5538 33.8682 19.5538 33.8449C19.436 33.5891 19.3181 33.3333 19.1296 33.1239C18.3047 32.1936 17.739 31.0772 17.197 29.9608C16.8199 29.1933 16.4899 28.4258 16.1835 27.6582C16.0421 27.2861 15.9478 26.8442 15.7357 26.4953C15.5707 26.2162 15.4293 25.9836 15.3115 25.6813L15.2879 25.658C15.1701 25.4022 15.0287 25.1696 14.9344 24.9137C14.793 24.5416 14.6044 24.216 14.4159 23.8904C14.2273 23.5415 13.9916 23.2159 13.756 22.867C13.5203 22.4949 13.2846 22.146 12.8839 21.9134C12.7425 21.8204 12.6011 21.7041 12.4833 21.5645C12.3418 21.4017 12.1769 21.2622 12.0119 21.1226C11.8233 20.9366 11.6584 20.7505 11.4698 20.5644C11.4462 20.5412 11.3991 20.5179 11.3755 20.4946C11.3755 20.5412 11.3755 20.5644 11.3755 20.5644C11.4698 20.6807 11.517 20.8435 11.6348 20.9366C11.6819 20.9831 11.7291 21.0528 11.7526 21.0994C11.9412 21.425 12.1062 21.7739 12.3419 22.053C12.4833 22.239 12.6247 22.4716 12.7425 22.6809C13.5203 23.9834 14.1095 25.4254 14.7694 26.7977C15.4765 28.2397 16.1835 29.6584 16.9377 31.0772C17.1734 31.5191 17.4326 31.868 17.7155 32.2866C17.7626 32.3564 17.8333 32.4029 17.8569 32.496C18.0218 32.8216 18.2811 33.0542 18.5404 33.2868C18.7053 33.4263 18.8467 33.5658 19.0117 33.7287C19.0353 33.7519 19.0589 33.7752 19.106 33.7752C19.2003 33.7752 19.2474 33.8449 19.3181 33.8915C19.3888 33.8915 19.4595 33.9147 19.5538 33.9845ZM3.45654 4.12076L3.43297 4.0975C3.4094 4.0975 3.38583 4.12076 3.38583 4.12076C3.38583 4.14402 3.38583 4.16728 3.38583 4.23705C3.43297 4.16728 3.43297 4.14402 3.45654 4.12076ZM2.16027 4.42312C2.16027 4.46964 2.18384 4.46964 2.20741 4.49289C2.20741 4.49289 2.2074 4.46964 2.23097 4.46964C2.18384 4.44638 2.16027 4.44638 2.16027 4.42312Z" fill="#367E1B"/>
<path d="M23.7961 33.8217C23.6547 33.9612 23.4662 34.0775 23.4662 33.8682C23.5133 33.6589 23.5133 33.4263 23.6311 33.217C23.7254 33.0309 23.7725 32.8216 23.8197 32.6123C24.0082 31.8913 24.1732 31.147 24.3618 30.426C24.5267 29.7282 24.7389 29.1002 24.9981 28.4258C25.0924 28.1932 25.1866 27.9606 25.2809 27.728C25.3752 27.5419 25.4695 27.3559 25.5637 27.1465C25.6109 27.0535 25.658 26.9372 25.7052 26.8442C25.7759 26.7279 25.8466 26.5883 25.9173 26.4721C25.9644 26.379 26.0351 26.286 26.1058 26.193L26.1294 26.1697C26.2472 25.8441 26.5065 25.6115 26.6715 25.3091C26.8129 25.0533 27.0014 24.844 27.1664 24.6114C27.2842 24.4486 27.4257 24.309 27.5435 24.1695C27.6613 24.0067 27.7792 23.8671 27.9206 23.7043C28.0149 23.7508 28.0384 23.7973 28.0384 23.8904C27.9442 25.2859 27.8499 26.6116 27.4257 27.9606C27.025 29.2863 26.3886 30.5423 25.5873 31.6819C25.3281 32.0541 25.0452 32.3564 24.7153 32.682C24.6917 32.7053 24.6681 32.7751 24.6446 32.8216C24.621 33.0309 24.5032 33.1937 24.3853 33.3333C24.2675 33.4496 24.1261 33.5193 24.0082 33.6589C23.9611 33.6356 23.8668 33.7287 23.7961 33.8217ZM26.8364 25.658C26.8364 25.6813 26.6715 25.7976 26.6479 25.8441C26.6008 25.9139 26.6008 26.0069 26.5536 26.0767C26.4358 26.3092 26.2237 26.5186 26.0822 26.7279C25.7759 27.1698 25.2809 28.1001 25.2809 28.1001C25.2809 28.1001 24.8331 29.2398 24.7388 29.8445C24.6446 30.4492 24.5974 31.0307 24.4089 31.6122C24.3853 31.6819 24.3618 31.775 24.4089 31.868C24.456 31.775 24.5032 31.7284 24.5503 31.6587C24.6917 31.4261 24.8331 31.1935 24.9745 30.9609C25.0924 30.7981 25.1866 30.6353 25.3045 30.4725C25.6109 30.0538 25.7994 29.5654 25.9644 29.077C26.0822 28.7514 26.1765 28.4258 26.2708 28.1001C26.53 27.4024 26.6715 26.6814 26.8129 25.9371C26.8129 25.8673 26.8129 25.7743 26.8364 25.658Z" fill="#66BC46"/>
<path d="M23.7961 33.8217C23.6547 33.9612 23.4662 34.0775 23.4662 33.8682C23.5133 33.6589 23.5133 33.4263 23.6311 33.217C23.7254 33.0309 23.7725 32.8216 23.8197 32.6123C24.0082 31.8913 24.1732 31.147 24.3618 30.426C24.5267 29.7282 24.7389 29.1002 24.9981 28.4258C25.0924 28.1932 25.1866 27.9606 25.2809 27.728C25.3752 27.5419 25.4695 27.3559 25.5637 27.1465C25.6109 27.0535 25.658 26.9372 25.7052 26.8442C25.7759 26.7279 25.8466 26.5883 25.9173 26.4721C25.9644 26.379 26.0351 26.286 26.1058 26.193L26.1294 26.1697C26.2472 25.8441 26.5065 25.6115 26.6715 25.3091C26.8129 25.0533 27.0014 24.844 27.1664 24.6114C27.2842 24.4486 27.4257 24.309 27.5435 24.1695C27.6613 24.0067 27.7792 23.8671 27.9206 23.7043C28.0149 23.7508 28.0384 23.7973 28.0384 23.8904C27.9442 25.2859 27.8499 26.6116 27.4257 27.9606C27.025 29.2863 26.3886 30.5423 25.5873 31.6819C25.3281 32.0541 25.0452 32.3564 24.7153 32.682C24.6917 32.7053 24.6681 32.7751 24.6446 32.8216C24.621 33.0309 24.5032 33.1937 24.3853 33.3333C24.2675 33.4496 24.1261 33.5193 24.0082 33.6589C23.9611 33.6356 23.8668 33.7287 23.7961 33.8217ZM26.8364 25.658C26.8364 25.6813 26.6715 25.7976 26.6479 25.8441C26.6008 25.9139 26.6008 26.0069 26.5536 26.0767C26.4358 26.3092 26.2237 26.5186 26.0822 26.7279C25.7759 27.1698 25.2809 28.1001 25.2809 28.1001C25.2809 28.1001 24.8331 29.2398 24.7388 29.8445C24.6446 30.4492 24.5974 31.0307 24.4089 31.6122C24.3853 31.6819 24.3618 31.775 24.4089 31.868C24.456 31.775 24.5032 31.7284 24.5503 31.6587C24.6917 31.4261 24.8331 31.1935 24.9745 30.9609C25.0924 30.7981 25.1866 30.6353 25.3045 30.4725C25.6109 30.0538 25.7994 29.5654 25.9644 29.077C26.0822 28.7514 26.1765 28.4258 26.2708 28.1001C26.53 27.4024 26.6715 26.6814 26.8129 25.9371C26.8129 25.8673 26.8129 25.7743 26.8364 25.658Z" fill="#367E1B"/>
</svg>
