<svg width="22" height="17" viewBox="0 0 22 17" fill="none" xmlns="http://www.w3.org/2000/svg">
<path fill-rule="evenodd" clip-rule="evenodd" d="M19 0H3C2.20435 0 1.44129 0.316071 0.87868 0.87868C0.31607 1.44129 0 2.20435 0 3V13C0 13.7956 0.31607 14.5587 0.87868 15.1213C1.44129 15.6839 2.20435 16 3 16H4V16.5C4 16.6326 4.05268 16.7598 4.14645 16.8536C4.24021 16.9473 4.36739 17 4.5 17H5.5C5.63261 17 5.75979 16.9473 5.85355 16.8536C5.94732 16.7598 6 16.6326 6 16.5V16H16V16.5C16 16.6326 16.0527 16.7598 16.1464 16.8536C16.2402 16.9473 16.3674 17 16.5 17H17.5C17.6326 17 17.7598 16.9473 17.8536 16.8536C17.9473 16.7598 18 16.6326 18 16.5V16H19C19.7956 16 20.5587 15.6839 21.1213 15.1213C21.6839 14.5587 22 13.7956 22 13V3C22 2.20435 21.6839 1.44129 21.1213 0.87868C20.5587 0.316071 19.7956 0 19 0ZM3 14C2.73478 14 2.48043 13.8946 2.29289 13.7071C2.10536 13.5196 2 13.2652 2 13V3C2 2.73478 2.10536 2.48043 2.29289 2.29289C2.48043 2.10536 2.73478 2 3 2H13V14H3ZM20 13C20 13.2652 19.8946 13.5196 19.7071 13.7071C19.5196 13.8946 19.2652 14 19 14H15V2H19C19.2652 2 19.5196 2.10536 19.7071 2.29289C19.8946 2.48043 20 2.73478 20 3V13Z" fill="white"/>
<path d="M17.5 5.64014C18.3284 5.64014 19 4.96856 19 4.14014C19 3.31171 18.3284 2.64014 17.5 2.64014C16.6716 2.64014 16 3.31171 16 4.14014C16 4.96856 16.6716 5.64014 17.5 5.64014Z" fill="white"/>
<path d="M17.5 9.64014C18.3284 9.64014 19 8.96856 19 8.14014C19 7.31171 18.3284 6.64014 17.5 6.64014C16.6716 6.64014 16 7.31171 16 8.14014C16 8.96856 16.6716 9.64014 17.5 9.64014Z" fill="white"/>
</svg>
