<svg width="22" height="22" viewBox="0 0 22 22" fill="none" xmlns="http://www.w3.org/2000/svg">
<path d="M3.5 0L3.1875 0.40625L0 4.65625V22H22V4.65625L18.8125 0.40625L18.5 0H3.5ZM4.5 2H10V4H3L4.5 2ZM12 2H17.5L19 4H12V2ZM2 6H20V20H2V6ZM7.8125 8C7.26172 8.05078 6.85547 8.54297 6.90625 9.09375C6.95703 9.64453 7.44922 10.0508 8 10H14C14.3594 10.0039 14.6953 9.81641 14.8789 9.50391C15.0586 9.19141 15.0586 8.80859 14.8789 8.49609C14.6953 8.18359 14.3594 7.99609 14 8H8C7.96875 8 7.9375 8 7.90625 8C7.875 8 7.84375 8 7.8125 8Z" fill="black"/>
</svg>
