<svg width="22" height="24" viewBox="0 0 22 24" fill="none" xmlns="http://www.w3.org/2000/svg">
<path d="M3 0V11.4688C1.25 12.7378 0 14.676 0 17C0 20.855 3.145 24 7 24C10.855 24 14 20.855 14 17C14 14.676 12.75 12.7378 11 11.4688V10H13V8H11V6H13V4H11V2H13V0H3ZM18.5 0C16.57 0 15 1.57 15 3.5C15 5.43 16.57 7 18.5 7C20.43 7 22 5.43 22 3.5C22 1.57 20.43 0 18.5 0ZM5 2H9V12.4062L9.5 12.6875C10.996 13.5555 12 15.148 12 17C12 19.773 9.773 22 7 22C4.227 22 2 19.773 2 17C2 15.148 3.004 13.5555 4.5 12.6875L5 12.4062V2ZM18.5 2C19.327 2 20 2.673 20 3.5C20 4.327 19.327 5 18.5 5C17.673 5 17 4.327 17 3.5C17 2.673 17.673 2 18.5 2ZM6 12V14.1875C4.84 14.6015 4 15.701 4 17.002C4 18.658 5.344 20.002 7 20.002C8.656 20.002 10 18.658 10 17.002C10 15.701 9.16 14.6025 8 14.1875V12H6Z" fill="black"/>
</svg>
