<svg width="21" height="24" viewBox="0 0 21 24" fill="none" xmlns="http://www.w3.org/2000/svg">
<path d="M19.8517 1.28144C19.7174 1.0456 19.4668 0.9 19.1954 0.9H1.65539C1.384 0.9 1.13345 1.0456 0.999088 1.28139L0.999083 1.2814L19.7648 1.33095M19.8517 1.28144L19.7648 1.33095M19.8517 1.28144C19.8517 1.28144 19.8517 1.28144 19.8517 1.28144L19.7648 1.33095M19.8517 1.28144C19.9861 1.51722 19.9836 1.80699 19.8453 2.04046C19.1268 3.25325 18.0392 4.26589 16.7019 4.97036L16.6553 4.88188M19.7648 1.33095C19.8814 1.53552 19.8793 1.78693 19.7593 1.98948C19.0509 3.18518 17.9775 4.18536 16.6553 4.88188M16.6553 4.88188L16.7019 4.97036C15.5805 5.56108 14.3202 5.91511 13.0209 6.00974M16.6553 4.88188L13.0209 6.00974M13.0209 6.00974V7.50009H16.0187C17.2274 7.50009 18.2495 8.40458 18.3964 9.60428L19.7199 20.4135C19.8033 21.094 19.5904 21.7787 19.1361 22.2921L19.0612 22.2259L19.1361 22.2922C18.6817 22.8055 18.0279 23.1 17.3423 23.1H3.50885C2.82326 23.1 2.16947 22.8055 1.71509 22.2921C1.26071 21.7787 1.04785 21.094 1.13122 20.4135L2.45483 9.6042C2.60173 8.40454 3.6238 7.5 4.83246 7.5H7.82995V6.00966C6.53056 5.91511 5.27032 5.56108 4.14889 4.97032C4.14889 4.97032 4.14888 4.97031 4.14888 4.97031L13.0209 6.00974ZM2.8464 21.2909L2.84638 21.2909C2.67583 21.0982 2.59946 20.8526 2.63074 20.5971L3.95431 9.78792C4.00854 9.34501 4.38613 9.01085 4.83242 9.01085L16.0187 9.01081C16.465 9.01081 16.8425 9.34492 16.8968 9.78792L18.2204 20.5971C18.2516 20.8525 18.1753 21.0982 18.0047 21.2909C17.8342 21.4836 17.5996 21.5893 17.3423 21.5893H3.50881C3.25149 21.5893 3.01691 21.4836 2.8464 21.2909ZM9.34067 7.50004V6.03578H11.5101V7.50004H9.34067ZM12.3143 4.52502H8.53649C6.42667 4.52502 4.48865 3.73698 3.18562 2.4108H17.6651C16.3621 3.73695 14.4241 4.52502 12.3143 4.52502Z" fill="#76818B" stroke="#76818B" stroke-width="0.2"/>
<path d="M10.4257 9.82908C7.40884 9.82908 4.95469 12.2833 4.95469 15.3C4.95469 18.3168 7.40889 20.7711 10.4257 20.7711C13.4424 20.7711 15.8966 18.3168 15.8966 15.3C15.8966 12.2832 13.4425 9.82908 10.4257 9.82908ZM10.4257 19.2602C8.24208 19.2602 6.46549 17.4836 6.46549 15.3C6.46549 13.1165 8.24212 11.3399 10.4257 11.3399C12.6092 11.3399 14.3858 13.1165 14.3858 15.3C14.3858 17.4836 12.6092 19.2602 10.4257 19.2602Z" fill="#76818B" stroke="#76818B" stroke-width="0.2"/>
<path d="M10.9599 15.8342L10.9599 15.8342C11.2548 15.5392 11.2548 15.0609 10.9599 14.7659C10.6649 14.4709 10.1866 14.4709 9.89162 14.7659L8.31365 16.3439C8.01863 16.6389 8.01863 17.1172 8.31365 17.4122C8.46111 17.5596 8.65462 17.6334 8.84777 17.6334C9.04093 17.6334 9.23444 17.5596 9.3819 17.4122L10.9599 15.8342Z" fill="#76818B" stroke="#76818B" stroke-width="0.2"/>
</svg>
