<svg width="18" height="20" viewBox="0 0 18 20" fill="none" xmlns="http://www.w3.org/2000/svg">
<path d="M8.23404 0V2.74038L6.4867 0.985577L5.38564 2.09135L8.23404 4.95192V8.65385L5.07447 6.75481L4.06915 2.83654L2.58511 3.22115L3.20745 5.625L0.861702 4.20673L0.0718085 5.50481L2.46543 6.94712L0 7.57212L0.382979 9.0625L4.30851 8.05289L7.53989 10L4.30851 11.9471L0.382979 10.9375L0 12.4279L2.46543 13.0529L0.0718085 14.4952L0.861702 15.7933L3.20745 14.375L2.58511 16.7788L4.06915 17.1635L5.07447 13.2452L8.23404 11.3462V15.0481L5.38564 17.9087L6.4867 19.0144L8.23404 17.2596V20H9.76596V17.2596L11.5133 19.0144L12.6144 17.9087L9.76596 15.0481V11.3462L12.9255 13.2452L13.9309 17.1635L15.4149 16.7788L14.7926 14.375L17.1383 15.7933L17.9282 14.4952L15.5346 13.0529L18 12.4279L17.617 10.9375L13.6915 11.9471L10.4601 10L13.6915 8.05289L17.617 9.0625L18 7.57212L15.5346 6.94712L17.9282 5.50481L17.1383 4.20673L14.7926 5.625L15.4149 3.22115L13.9309 2.83654L12.9255 6.75481L9.76596 8.65385V4.95192L12.6144 2.09135L11.5133 0.985577L9.76596 2.74038V0H8.23404Z" fill="#76818B"/>
</svg>
