<svg width="18" height="20" viewBox="0 0 18 20" fill="none" xmlns="http://www.w3.org/2000/svg">
<path d="M2.45455 0V9.55729C1.02273 10.6148 0 12.23 0 14.1667C0 17.3792 2.57318 20 5.72727 20C8.88136 20 11.4545 17.3792 11.4545 14.1667C11.4545 12.23 10.4318 10.6148 9 9.55729V8.33333H10.6364V6.66667H9V5H10.6364V3.33333H9V1.66667H10.6364V0H2.45455ZM15.1364 0C13.5573 0 12.2727 1.30833 12.2727 2.91667C12.2727 4.525 13.5573 5.83333 15.1364 5.83333C16.7155 5.83333 18 4.525 18 2.91667C18 1.30833 16.7155 0 15.1364 0ZM4.09091 1.66667H7.36364V10.3385L7.77273 10.5729C8.99673 11.2962 9.81818 12.6233 9.81818 14.1667C9.81818 16.4775 7.99609 18.3333 5.72727 18.3333C3.45845 18.3333 1.63636 16.4775 1.63636 14.1667C1.63636 12.6233 2.45782 11.2962 3.68182 10.5729L4.09091 10.3385V1.66667ZM15.1364 1.66667C15.813 1.66667 16.3636 2.2275 16.3636 2.91667C16.3636 3.60583 15.813 4.16667 15.1364 4.16667C14.4597 4.16667 13.9091 3.60583 13.9091 2.91667C13.9091 2.2275 14.4597 1.66667 15.1364 1.66667ZM4.90909 10V11.8229C3.96 12.1679 3.27273 13.0841 3.27273 14.1683C3.27273 15.5483 4.37236 16.6683 5.72727 16.6683C7.08218 16.6683 8.18182 15.5483 8.18182 14.1683C8.18182 13.0841 7.49455 12.1687 6.54545 11.8229V10H4.90909Z" fill="#76818B"/>
</svg>
