<svg width="33" height="40" fill="none" xmlns="http://www.w3.org/2000/svg"><path d="M19.577 31.728c.024-.07.047-.116.071-.186.047-.256.07-.511.118-.767.047-.395.047-.768.165-1.14.094-.349.118-.698.212-1.046.07-.256.165-.535.26-.791a5.56 5.56 0 01.353-.768c.165-.325.306-.674.471-1 .212-.395.424-.79.636-1.163.19-.325.401-.651.637-.953.235-.326.518-.628.801-.93.424-.42.849-.861 1.25-1.303.164-.186.4-.303.565-.512.047-.07.118-.116.165-.186.236-.21.471-.442.707-.651l.872-.79c.165-.14.354-.257.542-.42.354-.279.707-.558 1.037-.86.377-.326.73-.675 1.108-1.024.212-.209.448-.395.707-.558.188-.116.424-.209.566-.395.047-.07.14-.093.212-.116.259-.117.542-.256.801-.373.141-.046.306-.093.448-.116a.361.361 0 01.306.07c.07.046.142.093.212.163.024.046.047.093.071.163.141 1.325-.094 2.72-.094 4.07.023 1.488.282 2.954.212 4.442-.07 1.256-.495 2.558-.966 3.721-1.132 2.815-3.324 6.164-6.364 7.21-.448.163-.73.233-1.108.28-.33.046-.66.116-.942.255-1.085.535-2.075 2-2.05 3.21 0 .047 0 .116-.048.163-.141.21-.306.395-.519.512-.14.07-.282.093-.424 0a749.24 749.24 0 00-.283-.14c-.07-.046-.094-.093-.094-.163.047-.325.07-.651.118-.953v-.07c-.047-.163 0-.326-.024-.489a3.08 3.08 0 00-.165-.628 7.46 7.46 0 00-.447-1.209 11.671 11.671 0 00-.613-1.21c-.212-.371-.424-.813-.754-1.093-.047-.046-.095-.07-.165-.116-.519-.372-.967-.837-1.273-1.395-.07-.14-.165-.28-.236-.419-.07-.116-.165-.21-.306-.21-.471.024-.99-.255-1.438-.395-.353-.116-.707-.232-1.037-.395a1.59 1.59 0 01-.259-.163c-.4-.232-.825-.372-1.25-.581-.164-.093-.33-.163-.494-.256-.424-.233-.825-.489-1.226-.721-.259-.163-.495-.349-.754-.512a7.645 7.645 0 01-.683-.535c-.189-.163-.377-.279-.59-.418-.33-.21-.66-.42-.942-.675-.33-.302-.637-.628-.943-.93-.236-.233-.495-.465-.73-.698-.142-.14-.26-.302-.401-.419-.26-.232-.448-.535-.684-.79-.424-.535-.872-1.047-1.272-1.582a6.78 6.78 0 01-.566-.86c-.212-.373-.448-.745-.636-1.117-.213-.419-.425-.86-.613-1.303-.26-.604-.448-1.209-.66-1.837-.094-.302-.212-.605-.307-.907-.07-.186-.141-.349-.212-.535-.023-.07-.023-.163-.047-.232l-.212-.838c-.047-.186-.047-.349-.07-.535-.071-.511-.166-1.046-.213-1.558-.047-.558-.118-1.093-.07-1.651.023-.442.07-.884.094-1.326.023-.512.141-1 .235-1.489.095-.511.213-1.023.307-1.558.094-.535.165-1.07.236-1.605.047-.442.117-.884.141-1.302.024-.28.024-.558.047-.814.024-.233.07-.489.118-.721.094-.419.189-.814.283-1.21.023-.07.023-.163.047-.232.023-.093.07-.163.094-.256.047-.14.07-.256.118-.396l.07-.209A.479.479 0 012.562.12c.141.117.26.256.377.396.424.465.754.86 1.084 1.372.33.535.684 1.047 1.06 1.558C5.909 4.54 6.875 5.47 7.888 6.4c.307.302.66.558 1.037.79.283.187.566.396.872.582.354.233.708.489 1.061.721.236.163.471.372.707.535.236.186.495.372.73.535.166.117.33.256.496.372.353.28.636.605.99.86.377.28.754.582 1.13.908a15.286 15.286 0 011.98 2.117c1.203 1.511 2.098 3.256 2.687 5.093.354 1.116.542 2.326.684 3.489.141 1.232.118 2.488 0 3.721a34.354 34.354 0 01-.495 3.117c-.094.512-.236 1.023-.33 1.558a4.093 4.093 0 00-.047.535c-.07.093.141.465.188.395zM7.793 15.378c1.084.814 1.956 1.93 2.923 2.884l1.39 1.302c.424.372.943.721 1.32 1.117.495.535.943 1.093 1.367 1.674.66.93 1.273 1.838 1.768 2.861.306.628.589 1.256.848 1.884.118.326.26.651.377.977.047.14.094.279.118.418.024.14-.024.21.118.303 0-.047.023-.07.023-.093 0-.186 0-.372.024-.535 0-.21.024-.419.047-.628.118-2.466-.188-4.791-.778-7.164-.07-.302-.141-.581-.212-.884a19.655 19.655 0 00-.306-1.116c-.142-.488-.283-.954-.495-1.395a11.535 11.535 0 00-.377-.768c-1.32-2.163-2.993-4.047-5.138-5.42a5.355 5.355 0 01-.472-.301l-.848-.559C7.51 8.61 5.436 7.215 3.88 5.377c-.046-.047-.094-.117-.188-.093V5.4c-.07.558-.047 1.14-.118 1.698-.047.535-.141 1.07-.212 1.605a23.64 23.64 0 00-.212 1.86c-.07.838-.094 1.675-.07 2.512 0 .419.023.814.047 1.233.023.419.141.79.188 1.21.165 1.511.613 2.976 1.179 4.395.282.698.612 1.372.919 2.07.283.651.754 1.233 1.202 1.791.424.558.872 1.093 1.343 1.605.896.953 1.886 2 3.111 2.558a16.351 16.351 0 012.381 1.396c.282.21.565.442.872.605.259.14.518.255.777.395.118.07.236.116.354.186.024 0 .306.14.283.07-.024-.07-.047-.14-.071-.186-.141-.326-.283-.651-.4-.977-.119-.28-.236-.535-.354-.814-.095-.233-.212-.465-.307-.698-.188-.442-.377-.907-.565-1.349-.33-.744-.66-1.512-.99-2.256-.118-.28-.283-.558-.424-.814-.118-.233-.283-.442-.425-.651-.117-.186-.212-.35-.33-.535a5.924 5.924 0 00-.33-.489c-.14-.209-.259-.418-.377-.604-.047-.07-.094-.163-.165-.233-.164-.21-.33-.419-.494-.651a26.266 26.266 0 01-.684-1.047 9.286 9.286 0 01-.4-.628 1.477 1.477 0 01-.19-.325l-.211-.419c-.212-.372-.425-.721-.637-1.093-.07-.14-.141-.256-.188-.396l-.354-.767c-.118-.07-.141-.163-.047-.28zm13.93 22.212c.14-.21.258-.42.376-.605.07-.117.118-.28.212-.396.495-.627 1.108-1 1.768-1.395a14.778 14.778 0 002.97-2.419c.447-.465.848-.953 1.225-1.465.4-.535.802-1.047 1.06-1.652.354-.814.684-1.604.85-2.488.188-.907.258-1.838.306-2.768.047-.954.023-1.907.07-2.86.024-.908.118-1.838.118-2.745 0-.07.024-.14-.047-.186.094.07-.636.581-.683.604-.33.233-.66.442-.967.698a37.67 37.67 0 00-1.838 1.419c0 .093-.306.326-.377.395-.142.14-.26.28-.4.419l-.85.907c-.282.28-.541.581-.8.86-.213.233-.33.536-.543.791-.636.838-1.107 1.908-1.461 2.908a17.776 17.776 0 00-.801 3.302c-.33 2.187-.283 4.42-.307 6.629.047-.023.095 0 .118.047zm-2.17-3.606v-.14c-.117-.255-.235-.51-.423-.72-.825-.93-1.391-2.047-1.933-3.163a32.593 32.593 0 01-1.014-2.303c-.14-.372-.235-.814-.447-1.163-.165-.279-.307-.511-.425-.814l-.023-.023c-.118-.256-.26-.488-.354-.744-.141-.372-.33-.698-.518-1.024-.189-.349-.424-.674-.66-1.023-.236-.372-.471-.721-.872-.954a1.867 1.867 0 01-.4-.349 4.285 4.285 0 00-.472-.441c-.189-.186-.354-.373-.542-.559-.024-.023-.07-.046-.095-.07v.07c.095.117.142.28.26.373a.704.704 0 01.118.162c.188.326.353.675.589.954.141.186.283.419.4.628.778 1.302 1.367 2.744 2.027 4.117a146.14 146.14 0 002.169 4.28c.235.441.495.79.777 1.209.048.07.118.116.142.209.165.326.424.558.683.79.165.14.307.28.472.443.023.023.047.046.094.046.094 0 .141.07.212.117.07 0 .141.023.236.092zM3.458 4.121l-.024-.024c-.024 0-.047.024-.047.024v.116c.047-.07.047-.093.07-.116zm-1.297.302c0 .047.024.047.047.07 0 0 0-.023.024-.023-.047-.024-.07-.024-.07-.047z" fill="#66BC46"/><path d="M19.577 31.728c.024-.07.047-.116.071-.186.047-.256.07-.511.118-.767.047-.395.047-.768.165-1.14.094-.349.118-.698.212-1.046.07-.256.165-.535.26-.791a5.56 5.56 0 01.353-.768c.165-.325.306-.674.471-1 .212-.395.424-.79.636-1.163.19-.325.401-.651.637-.953.235-.326.518-.628.801-.93.424-.42.849-.861 1.25-1.303.164-.186.4-.303.565-.512.047-.07.118-.116.165-.186.236-.21.471-.442.707-.651l.872-.79c.165-.14.354-.257.542-.42.354-.279.707-.558 1.037-.86.377-.326.73-.675 1.108-1.024.212-.209.448-.395.707-.558.188-.116.424-.209.566-.395.047-.07.14-.093.212-.116.259-.117.542-.256.801-.373.141-.046.306-.093.448-.116a.361.361 0 01.306.07c.07.046.142.093.212.163.024.046.047.093.071.163.141 1.325-.094 2.72-.094 4.07.023 1.488.282 2.954.212 4.442-.07 1.256-.495 2.558-.966 3.721-1.132 2.815-3.324 6.164-6.364 7.21-.448.163-.73.233-1.108.28-.33.046-.66.116-.942.255-1.085.535-2.075 2-2.05 3.21 0 .047 0 .116-.048.163-.141.21-.306.395-.519.512-.14.07-.282.093-.424 0a749.24 749.24 0 00-.283-.14c-.07-.046-.094-.093-.094-.163.047-.325.07-.651.118-.953v-.07c-.047-.163 0-.326-.024-.489a3.08 3.08 0 00-.165-.628 7.46 7.46 0 00-.447-1.209 11.671 11.671 0 00-.613-1.21c-.212-.371-.424-.813-.754-1.093-.047-.046-.095-.07-.165-.116-.519-.372-.967-.837-1.273-1.395-.07-.14-.165-.28-.236-.419-.07-.116-.165-.21-.306-.21-.471.024-.99-.255-1.438-.395-.353-.116-.707-.232-1.037-.395a1.59 1.59 0 01-.259-.163c-.4-.232-.825-.372-1.25-.581-.164-.093-.33-.163-.494-.256-.424-.233-.825-.489-1.226-.721-.259-.163-.495-.349-.754-.512a7.645 7.645 0 01-.683-.535c-.189-.163-.377-.279-.59-.418-.33-.21-.66-.42-.942-.675-.33-.302-.637-.628-.943-.93-.236-.233-.495-.465-.73-.698-.142-.14-.26-.302-.401-.419-.26-.232-.448-.535-.684-.79-.424-.535-.872-1.047-1.272-1.582a6.78 6.78 0 01-.566-.86c-.212-.373-.448-.745-.636-1.117-.213-.419-.425-.86-.613-1.303-.26-.604-.448-1.209-.66-1.837-.094-.302-.212-.605-.307-.907-.07-.186-.141-.349-.212-.535-.023-.07-.023-.163-.047-.232l-.212-.838c-.047-.186-.047-.349-.07-.535-.071-.511-.166-1.046-.213-1.558-.047-.558-.118-1.093-.07-1.651.023-.442.07-.884.094-1.326.023-.512.141-1 .235-1.489.095-.511.213-1.023.307-1.558.094-.535.165-1.07.236-1.605.047-.442.117-.884.141-1.302.024-.28.024-.558.047-.814.024-.233.07-.489.118-.721.094-.419.189-.814.283-1.21.023-.07.023-.163.047-.232.023-.093.07-.163.094-.256.047-.14.07-.256.118-.396l.07-.209A.479.479 0 012.562.12c.141.117.26.256.377.396.424.465.754.86 1.084 1.372.33.535.684 1.047 1.06 1.558C5.909 4.54 6.875 5.47 7.888 6.4c.307.302.66.558 1.037.79.283.187.566.396.872.582.354.233.708.489 1.061.721.236.163.471.372.707.535.236.186.495.372.73.535.166.117.33.256.496.372.353.28.636.605.99.86.377.28.754.582 1.13.908a15.286 15.286 0 011.98 2.117c1.203 1.511 2.098 3.256 2.687 5.093.354 1.116.542 2.326.684 3.489.141 1.232.118 2.488 0 3.721a34.354 34.354 0 01-.495 3.117c-.094.512-.236 1.023-.33 1.558a4.093 4.093 0 00-.047.535c-.07.093.141.465.188.395zM7.793 15.378c1.084.814 1.956 1.93 2.923 2.884l1.39 1.302c.424.372.943.721 1.32 1.117.495.535.943 1.093 1.367 1.674.66.93 1.273 1.838 1.768 2.861.306.628.589 1.256.848 1.884.118.326.26.651.377.977.047.14.094.279.118.418.024.14-.024.21.118.303 0-.047.023-.07.023-.093 0-.186 0-.372.024-.535 0-.21.024-.419.047-.628.118-2.466-.188-4.791-.778-7.164-.07-.302-.141-.581-.212-.884a19.655 19.655 0 00-.306-1.116c-.142-.488-.283-.954-.495-1.395a11.535 11.535 0 00-.377-.768c-1.32-2.163-2.993-4.047-5.138-5.42a5.355 5.355 0 01-.472-.301l-.848-.559C7.51 8.61 5.436 7.215 3.88 5.377c-.046-.047-.094-.117-.188-.093V5.4c-.07.558-.047 1.14-.118 1.698-.047.535-.141 1.07-.212 1.605a23.64 23.64 0 00-.212 1.86c-.07.838-.094 1.675-.07 2.512 0 .419.023.814.047 1.233.023.419.141.79.188 1.21.165 1.511.613 2.976 1.179 4.395.282.698.612 1.372.919 2.07.283.651.754 1.233 1.202 1.791.424.558.872 1.093 1.343 1.605.896.953 1.886 2 3.111 2.558a16.351 16.351 0 012.381 1.396c.282.21.565.442.872.605.259.14.518.255.777.395.118.07.236.116.354.186.024 0 .306.14.283.07-.024-.07-.047-.14-.071-.186-.141-.326-.283-.651-.4-.977-.119-.28-.236-.535-.354-.814-.095-.233-.212-.465-.307-.698-.188-.442-.377-.907-.565-1.349-.33-.744-.66-1.512-.99-2.256-.118-.28-.283-.558-.424-.814-.118-.233-.283-.442-.425-.651-.117-.186-.212-.35-.33-.535a5.924 5.924 0 00-.33-.489c-.14-.209-.259-.418-.377-.604-.047-.07-.094-.163-.165-.233-.164-.21-.33-.419-.494-.651a26.266 26.266 0 01-.684-1.047 9.286 9.286 0 01-.4-.628 1.477 1.477 0 01-.19-.325l-.211-.419c-.212-.372-.425-.721-.637-1.093-.07-.14-.141-.256-.188-.396l-.354-.767c-.118-.07-.141-.163-.047-.28zm13.93 22.212c.14-.21.258-.42.376-.605.07-.117.118-.28.212-.396.495-.627 1.108-1 1.768-1.395a14.778 14.778 0 002.97-2.419c.447-.465.848-.953 1.225-1.465.4-.535.802-1.047 1.06-1.652.354-.814.684-1.604.85-2.488.188-.907.258-1.838.306-2.768.047-.954.023-1.907.07-2.86.024-.908.118-1.838.118-2.745 0-.07.024-.14-.047-.186.094.07-.636.581-.683.604-.33.233-.66.442-.967.698a37.67 37.67 0 00-1.838 1.419c0 .093-.306.326-.377.395-.142.14-.26.28-.4.419l-.85.907c-.282.28-.541.581-.8.86-.213.233-.33.536-.543.791-.636.838-1.107 1.908-1.461 2.908a17.776 17.776 0 00-.801 3.302c-.33 2.187-.283 4.42-.307 6.629.047-.023.095 0 .118.047zm-2.17-3.606v-.14c-.117-.255-.235-.51-.423-.72-.825-.93-1.391-2.047-1.933-3.163a32.593 32.593 0 01-1.014-2.303c-.14-.372-.235-.814-.447-1.163-.165-.279-.307-.511-.425-.814l-.023-.023c-.118-.256-.26-.488-.354-.744-.141-.372-.33-.698-.518-1.024-.189-.349-.424-.674-.66-1.023-.236-.372-.471-.721-.872-.954a1.867 1.867 0 01-.4-.349 4.285 4.285 0 00-.472-.441c-.189-.186-.354-.373-.542-.559-.024-.023-.07-.046-.095-.07v.07c.095.117.142.28.26.373a.704.704 0 01.118.162c.188.326.353.675.589.954.141.186.283.419.4.628.778 1.302 1.367 2.744 2.027 4.117a146.14 146.14 0 002.169 4.28c.235.441.495.79.777 1.209.048.07.118.116.142.209.165.326.424.558.683.79.165.14.307.28.472.443.023.023.047.046.094.046.094 0 .141.07.212.117.07 0 .141.023.236.092zM3.458 4.121l-.024-.024c-.024 0-.047.024-.047.024v.116c.047-.07.047-.093.07-.116zm-1.297.302c0 .047.024.047.047.07 0 0 0-.023.024-.023-.047-.024-.07-.024-.07-.047z" fill="#367E1B"/><path d="M23.796 33.822c-.141.14-.33.255-.33.046.047-.21.047-.442.165-.651.094-.186.142-.395.189-.605.188-.72.353-1.465.542-2.186.165-.698.377-1.326.636-2l.283-.698c.094-.186.189-.372.283-.582.047-.093.094-.209.141-.302.07-.116.142-.256.212-.372.047-.093.118-.186.189-.279l.023-.023c.118-.326.377-.559.543-.86.14-.257.33-.466.494-.699.118-.162.26-.302.378-.442.117-.162.235-.302.377-.465.094.047.117.093.117.186-.094 1.396-.188 2.722-.612 4.07a13.087 13.087 0 01-1.839 3.722 7.01 7.01 0 01-.872 1c-.023.023-.047.093-.07.14-.024.209-.142.372-.26.511-.118.117-.259.186-.377.326-.047-.023-.141.07-.212.163zm3.04-8.164c0 .023-.164.14-.188.186-.047.07-.047.163-.094.233-.118.232-.33.442-.472.65-.306.443-.801 1.373-.801 1.373s-.448 1.14-.542 1.744c-.094.605-.142 1.187-.33 1.768-.024.07-.047.163 0 .256.047-.093.094-.14.141-.21l.424-.697c.118-.163.213-.326.33-.488.307-.42.495-.908.66-1.396.118-.326.213-.651.307-.977.259-.698.4-1.419.542-2.163 0-.07 0-.163.023-.279z" fill="#66BC46"/><path d="M23.796 33.822c-.141.14-.33.255-.33.046.047-.21.047-.442.165-.651.094-.186.142-.395.189-.605.188-.72.353-1.465.542-2.186.165-.698.377-1.326.636-2l.283-.698c.094-.186.189-.372.283-.582.047-.093.094-.209.141-.302.07-.116.142-.256.212-.372.047-.093.118-.186.189-.279l.023-.023c.118-.326.377-.559.543-.86.14-.257.33-.466.494-.699.118-.162.26-.302.378-.442.117-.162.235-.302.377-.465.094.047.117.093.117.186-.094 1.396-.188 2.722-.612 4.07a13.087 13.087 0 01-1.839 3.722 7.01 7.01 0 01-.872 1c-.023.023-.047.093-.07.14-.024.209-.142.372-.26.511-.118.117-.259.186-.377.326-.047-.023-.141.07-.212.163zm3.04-8.164c0 .023-.164.14-.188.186-.047.07-.047.163-.094.233-.118.232-.33.442-.472.65-.306.443-.801 1.373-.801 1.373s-.448 1.14-.542 1.744c-.094.605-.142 1.187-.33 1.768-.024.07-.047.163 0 .256.047-.093.094-.14.141-.21l.424-.697c.118-.163.213-.326.33-.488.307-.42.495-.908.66-1.396.118-.326.213-.651.307-.977.259-.698.4-1.419.542-2.163 0-.07 0-.163.023-.279z" fill="#367E1B"/></svg>