<svg width="22" height="24" fill="none" xmlns="http://www.w3.org/2000/svg"><path d="M3 0v11.469C1.25 12.738 0 14.676 0 17c0 3.855 3.145 7 7 7s7-3.145 7-7c0-2.324-1.25-4.262-3-5.531V10h2V8h-2V6h2V4h-2V2h2V0H3zm15.5 0C16.57 0 15 1.57 15 3.5S16.57 7 18.5 7 22 5.43 22 3.5 20.43 0 18.5 0zM5 2h4v10.406l.5.281c1.496.869 2.5 2.461 2.5 4.313 0 2.773-2.227 5-5 5s-5-2.227-5-5c0-1.852 1.004-3.444 2.5-4.313l.5-.28V2zm13.5 0c.827 0 1.5.673 1.5 1.5S19.327 5 18.5 5 17 4.327 17 3.5 17.673 2 18.5 2zM6 12v2.188c-1.16.413-2 1.513-2 2.814a3.001 3.001 0 006 0c0-1.301-.84-2.4-2-2.814V12H6z" fill="#000"/></svg>