<svg width="21" height="24" fill="none" xmlns="http://www.w3.org/2000/svg"><path d="M19.852 1.281A.755.755 0 0019.195.9H1.655A.755.755 0 001 1.281h0l18.766.05m.087-.05l-.087.05m.087-.05s0 0 0 0l-.087.05m.087-.05a.755.755 0 01-.007.76c-.718 1.212-1.806 2.225-3.143 2.93l-.047-.09m3.11-3.55a.655.655 0 01-.006.658c-.708 1.196-1.782 2.196-3.104 2.893m0 0l.047.088a9.374 9.374 0 01-3.681 1.04m3.634-1.128L13.021 6.01m0 0V7.5h2.998c1.208 0 2.23.905 2.377 2.104l1.324 10.81c.083.68-.13 1.365-.584 1.878l-.075-.066.075.066a2.397 2.397 0 01-1.794.808H3.51a2.397 2.397 0 01-2.378-2.687L2.455 9.604A2.398 2.398 0 014.832 7.5H7.83V6.01a9.371 9.371 0 01-3.681-1.04s0 0 0 0l8.872 1.04zM2.846 21.29h0a.872.872 0 01-.215-.693l1.323-10.81a.886.886 0 01.878-.776H16.02c.446 0 .824.334.878.777l1.323 10.81a.872.872 0 01-.215.693.872.872 0 01-.663.298H3.51a.872.872 0 01-.663-.298zM9.341 7.5V6.036h2.17V7.5H9.34zm2.973-2.975H8.536c-2.11 0-4.047-.788-5.35-2.114h14.48c-1.304 1.326-3.242 2.114-5.352 2.114z" fill="#76818B" stroke="#76818B" stroke-width=".2"/><path d="M10.426 9.83a5.477 5.477 0 00-5.471 5.47 5.477 5.477 0 005.47 5.471 5.477 5.477 0 005.472-5.471 5.477 5.477 0 00-5.471-5.47zm0 9.43a3.965 3.965 0 01-3.96-3.96 3.965 3.965 0 013.96-3.96 3.965 3.965 0 013.96 3.96 3.965 3.965 0 01-3.96 3.96z" fill="#76818B" stroke="#76818B" stroke-width=".2"/><path d="M10.96 15.834h0a.756.756 0 00-1.068-1.068l-1.578 1.578a.755.755 0 101.068 1.068l1.578-1.578z" fill="#76818B" stroke="#76818B" stroke-width=".2"/></svg>