<svg width="18" height="20" fill="none" xmlns="http://www.w3.org/2000/svg"><path d="M8.234 0v2.74L6.487.986 5.386 2.09l2.848 2.86v3.703l-3.16-1.9L4.07 2.838l-1.484.384.622 2.404L.862 4.207l-.79 1.298 2.393 1.442L0 7.572l.383 1.49 3.926-1.01L7.539 10l-3.23 1.947-3.926-1.01L0 12.428l2.465.626-2.393 1.442.79 1.298 2.345-1.418-.622 2.404 1.484.384 1.005-3.918 3.16-1.899v3.702l-2.848 2.86 1.1 1.106 1.748-1.754V20h1.532v-2.74l1.747 1.754 1.101-1.105-2.848-2.86v-3.703l3.16 1.9 1.005 3.917 1.484-.384-.622-2.404 2.345 1.418.79-1.298-2.393-1.442L18 12.428l-.383-1.49-3.926 1.01L10.461 10l3.23-1.947 3.926 1.01.383-1.49-2.465-.626 2.393-1.442-.79-1.298-2.345 1.418.622-2.404-1.484-.384-1.005 3.918-3.16 1.899V4.952l2.848-2.86-1.1-1.106L9.765 2.74V0H8.234z" fill="#76818B"/></svg>