<svg width="18" height="20" fill="none" xmlns="http://www.w3.org/2000/svg"><path d="M2.455 0v9.557C1.023 10.615 0 12.23 0 14.167 0 17.379 2.573 20 5.727 20c3.154 0 5.727-2.62 5.727-5.833 0-1.937-1.022-3.552-2.454-4.61V8.333h1.636V6.667H9V5h1.636V3.333H9V1.667h1.636V0H2.455zm12.681 0c-1.579 0-2.863 1.308-2.863 2.917 0 1.608 1.284 2.916 2.863 2.916 1.58 0 2.864-1.308 2.864-2.916C18 1.308 16.715 0 15.136 0zM4.091 1.667h3.273v8.671l.409.235a4.153 4.153 0 012.045 3.594c0 2.31-1.822 4.166-4.09 4.166-2.27 0-4.092-1.855-4.092-4.166 0-1.544.822-2.87 2.046-3.594l.409-.235v-8.67zm11.045 0c.677 0 1.228.56 1.228 1.25a1.24 1.24 0 01-1.228 1.25 1.24 1.24 0 01-1.227-1.25c0-.69.55-1.25 1.227-1.25zM4.91 10v1.823a2.494 2.494 0 00-1.636 2.345c0 1.38 1.1 2.5 2.454 2.5 1.355 0 2.455-1.12 2.455-2.5 0-1.084-.687-2-1.637-2.345V10H4.91z" fill="#76818B"/></svg>